<svg id="Layer_1" data-name="Layer 1" xmlns="http://www.w3.org/2000/svg" viewBox="0 0 57.08 171.14"><defs><style>.cls-1{fill:#4597ab;}.cls-2{fill:#55bbd4;}.cls-3{fill:#88b3bd;}.cls-4{fill:#bbcfd4;}.cls-5{fill:#1f434d;}.cls-6{fill:#3a7f91;}.cls-7{fill:#285763;}.cls-8{fill:#fff;}.cls-9{fill:#d4f6ff;}</style></defs><title>rocket</title><path class="cls-1" d="M50.5,68.17H38.68v-31c0-1.77,1.25-3.46,3.46-4.67l2.45-1.34L47,32.5c2.21,1.21,3.46,2.9,3.46,4.67v31Z"/><path class="cls-1" d="M18.4,68.17H6.57v-31c0-1.77,1.25-3.46,3.46-4.67l2.45-1.34,2.45,1.34c2.21,1.21,3.46,2.9,3.46,4.67v31Z"/><path class="cls-1" d="M38.68,63.52H18.4V10.33c0-3,2.15-5.94,5.94-8L28.54,0l4.2,2.31c3.79,2.08,5.94,5,5.94,8V63.52Z"/><path class="cls-2" d="M32.93,59.77h5.5a3.36,3.36,0,0,1,3.36,3.36v12.5a0,0,0,0,1,0,0H29.57a0,0,0,0,1,0,0V63.12A3.36,3.36,0,0,1,32.93,59.77Z"/><path class="cls-2" d="M15.3,75.63V63.33c0-2,2.73-3.57,6.11-3.57h0c3.37,0,6.11,1.6,6.11,3.57V75.63"/><path class="cls-3" d="M54.81,59l-15-11.06L33,15.19c-1-2.72-7.66-2.69-8.62,0L17.65,47.94,2.27,59,0,68.84l28.54,2,28.54-2Z"/><rect class="cls-4" x="21.4" y="20.56" width="14.27" height="56.56" rx="3.93" ry="3.93"/><path class="cls-5" d="M28.54,13.17h0c-2.85,0-5.17.91-5.17,2v2l2.87-.44a16.55,16.55,0,0,1,5,0l2.45,0.4v-2C33.71,14.08,31.39,13.17,28.54,13.17Z"/><path class="cls-6" d="M28.54,22.06h0c-2.85,0-5.17.91-5.17,2v2l2.87-1.76a16.55,16.55,0,0,1,5,0l2.45,1.73v-2C33.71,23,31.39,22.06,28.54,22.06Z"/><ellipse class="cls-7" cx="28.9" cy="14.54" rx="1.47" ry="0.86"/><path class="cls-8" d="M29.38,171.14V74s-7.76-1.39-10.57,9.15,5.86,13.47,5.86,13.47-4.18,3.48-3.95,7.34,5.57,4.83,5.57,4.83-7.27,2.84-7.06,7.12c0.14,2.82,7,5.05,7,5.05C27.4,127.37,29.38,171.14,29.38,171.14Z"/><path class="cls-9" d="M29.39,171.14V74S37.15,72.64,40,83.18s-5.86,13.47-5.86,13.47,4.18,3.48,3.95,7.34-5.57,4.83-5.57,4.83,7.27,2.84,7.06,7.12c-0.14,2.82-7,5.05-7,5.05C31.13,127.37,29.39,171.14,29.39,171.14Z"/></svg>